<svg aria-hidden="true" style="position: absolute; width: 0; height: 0; overflow: hidden;" version="1.1" xmlns="http://www.w3.org/2000/svg" xmlns:xlink="http://www.w3.org/1999/xlink">
<defs>
<symbol id="icon-antenna-1" viewBox="0 0 32 32">
<title>antenna-1</title>
<path fill="#212121" style="fill: var(--color1, #212121)" d="M28.777 21.274l-7.302-7.356 0.81-3.991c0.209 0.081 0.432 0.125 0.656 0.126h0.005c1.031 0.012 1.877-0.814 1.889-1.845s-0.814-1.877-1.845-1.889c-1.031-0.012-1.877 0.814-1.889 1.845-0.003 0.221 0.034 0.44 0.108 0.648l-4.29 0.523-6.998-7.034c-0.086-0.087-0.203-0.138-0.326-0.138-0.121 0.001-0.237 0.048-0.323 0.134l-1.309 1.301c-0.18 0.18-0.18 0.472 0 0.652l0.704 0.714c-2.727 5.014-1.841 11.224 2.179 15.276 0.037 0.035 0.080 0.064 0.126 0.085-0.029 0.156-0.044 0.315-0.045 0.473v5.351h-5.535c-1.273 0.002-2.305 1.034-2.307 2.307v0.923c0 0.255 0.207 0.461 0.461 0.461h21.218c0.255 0 0.461-0.207 0.461-0.461v-0.923c-0.002-1.273-1.034-2.305-2.307-2.307h-5.535v-2.371c0.867 0.182 1.75 0.274 2.637 0.277 2.126-0.003 4.218-0.532 6.089-1.542l0.707 0.712c0.086 0.087 0.203 0.137 0.326 0.138 0.121-0.001 0.237-0.048 0.323-0.134l1.309-1.301c0.18-0.18 0.18-0.472 0-0.652zM22.296 7.553c0.361-0.359 0.945-0.358 1.304 0.003s0.358 0.945-0.003 1.304c-0.173 0.172-0.407 0.268-0.65 0.268h-0.003c-0.509-0.003-0.92-0.418-0.918-0.927 0.002-0.244 0.099-0.477 0.272-0.649h-0.002zM21.21 10.584l-0.517 2.548-1.016-1.022 1.534-1.525zM20.687 9.804l-1.661 1.651-1.284-1.291 2.945-0.359zM22.922 27.070c0.765 0 1.384 0.619 1.384 1.384v0.461h-20.296v-0.461c0-0.765 0.619-1.384 1.384-1.384h17.528zM16.464 25.226v0.923h-4.612v-0.923h4.612zM11.852 24.303v-3.505c0-1.119 1.034-2.030 2.307-2.030s2.307 0.911 2.307 2.030v3.505h-4.612zM17.387 22.836v-2.038c0-1.628-1.449-2.952-3.229-2.952-1.151-0.017-2.228 0.568-2.838 1.545-3.51-3.696-4.299-9.207-1.971-13.74l16.088 16.18c-2.484 1.264-5.332 1.62-8.051 1.006zM27.151 22.244l-18.211-18.319 0.653-0.65 6.863 6.902c0.003 0 0.005 0.006 0.009 0.009l11.343 11.408-0.655 0.65z"></path>
<path fill="#2196f3" style="fill: var(--color2, #2196f3)" d="M14.163 19.69h-0.004c-0.765-0.001-1.385 0.617-1.386 1.382s0.617 1.385 1.382 1.386h0.004c0.765 0.001 1.385-0.617 1.386-1.382s-0.617-1.385-1.382-1.386zM14.486 21.401c-0.086 0.087-0.204 0.135-0.327 0.134-0.255-0.002-0.46-0.209-0.459-0.464 0.001-0.122 0.049-0.239 0.136-0.324s0.201-0.133 0.323-0.134c0.255 0.002 0.46 0.208 0.458 0.464-0.001 0.122-0.049 0.239-0.136 0.324h0.004z"></path>
</symbol>
<symbol id="icon-astronaut-1" viewBox="0 0 32 32">
<title>astronaut-1</title>
<path fill="#2196f3" style="fill: var(--color2, #2196f3)" d="M29.815 6.075c-0.055-0.167-0.198-0.288-0.372-0.314l-1.652-0.24-0.739-1.497c-0.155-0.316-0.672-0.316-0.827 0l-0.739 1.497-1.652 0.24c-0.174 0.025-0.317 0.147-0.373 0.314-0.054 0.167-0.009 0.35 0.117 0.473l1.196 1.166-0.282 1.646c-0.029 0.173 0.041 0.348 0.183 0.451 0.144 0.105 0.33 0.117 0.486 0.035l1.478-0.777 1.478 0.777c0.067 0.035 0.142 0.053 0.215 0.053 0.095 0 0.191-0.029 0.272-0.088 0.142-0.103 0.213-0.278 0.183-0.451l-0.282-1.646 1.196-1.166c0.125-0.123 0.17-0.306 0.117-0.473zM27.685 7.223c-0.108 0.106-0.158 0.259-0.132 0.408l0.165 0.963-0.865-0.455c-0.067-0.035-0.141-0.053-0.215-0.053s-0.147 0.017-0.215 0.053l-0.866 0.455 0.165-0.963c0.026-0.15-0.024-0.302-0.132-0.408l-0.701-0.682 0.968-0.141c0.151-0.022 0.28-0.116 0.348-0.253l0.432-0.876 0.432 0.876c0.067 0.136 0.197 0.231 0.348 0.253l0.968 0.141-0.7 0.682z"></path>
<path fill="#2196f3" style="fill: var(--color2, #2196f3)" d="M24.765 19.911h-0.923v0.923h0.923v-0.923z"></path>
<path fill="#2196f3" style="fill: var(--color2, #2196f3)" d="M24.765 21.757h-0.923v0.923h0.923v-0.923z"></path>
<path fill="#2196f3" style="fill: var(--color2, #2196f3)" d="M25.686 20.834h-0.923v0.923h0.923v-0.923z"></path>
<path fill="#2196f3" style="fill: var(--color2, #2196f3)" d="M23.842 20.834h-0.923v0.923h0.923v-0.923z"></path>
<path fill="#2196f3" style="fill: var(--color2, #2196f3)" d="M21.535 24.985h-0.923v0.923h0.923v-0.923z"></path>
<path fill="#2196f3" style="fill: var(--color2, #2196f3)" d="M21.535 26.83h-0.923v0.923h0.923v-0.923z"></path>
<path fill="#2196f3" style="fill: var(--color2, #2196f3)" d="M22.458 25.908h-0.923v0.923h0.923v-0.923z"></path>
<path fill="#2196f3" style="fill: var(--color2, #2196f3)" d="M20.612 25.908h-0.923v0.923h0.923v-0.923z"></path>
<path fill="#2196f3" style="fill: var(--color2, #2196f3)" d="M16 23.14h-0.923v0.923h0.923v-0.923z"></path>
<path fill="#2196f3" style="fill: var(--color2, #2196f3)" d="M16 24.985h-0.923v0.923h0.923v-0.923z"></path>
<path fill="#2196f3" style="fill: var(--color2, #2196f3)" d="M16.923 24.062h-0.923v0.923h0.923v-0.923z"></path>
<path fill="#2196f3" style="fill: var(--color2, #2196f3)" d="M15.077 24.062h-0.923v0.923h0.923v-0.923z"></path>
<path fill="#2196f3" style="fill: var(--color2, #2196f3)" d="M7.236 7.457h-0.923v0.923h0.923v-0.923z"></path>
<path fill="#2196f3" style="fill: var(--color2, #2196f3)" d="M7.236 9.302h-0.923v0.923h0.923v-0.923z"></path>
<path fill="#2196f3" style="fill: var(--color2, #2196f3)" d="M8.158 8.38h-0.923v0.923h0.923v-0.923z"></path>
<path fill="#2196f3" style="fill: var(--color2, #2196f3)" d="M6.314 8.38h-0.923v0.923h0.923v-0.923z"></path>
<path fill="#212121" style="fill: var(--color1, #212121)" d="M23.537 14.408c-0.248-0.336-0.613-0.551-1.027-0.61-0.416-0.059-0.827 0.050-1.159 0.304l-1.083 0.83-1.642 1.225-1.175-0.468c2.094-0.939 3.558-3.034 3.558-5.466 0-3.306-2.701-5.996-6.020-5.996s-6.020 2.69-6.020 5.996c0 1.199 0.358 2.313 0.969 3.25l-2.39-0.021c-0.002 0-0.003 0-0.004 0-0.008 0-0.013 0.003-0.020 0.004-0.046 0.002-0.091 0.011-0.134 0.027-0.011 0.004-0.022 0.007-0.033 0.011-0.005 0.003-0.011 0.003-0.016 0.005l-2.796 1.38c-0.001 0-0.001 0-0.001 0.001l-1.637 0.788c-0.018 0.008-0.036 0.018-0.054 0.030-0.653 0.434-0.875 1.288-0.517 1.985 0.19 0.371 0.515 0.644 0.913 0.769 0.154 0.048 0.311 0.072 0.466 0.072 0.251 0 0.499-0.061 0.726-0.183l1.2-0.638 1.958-1.011 1.174-0.007-4.707 4.684c-0.001 0.001-0.001 0.001-0.002 0.001l-1.158 1.153c-0.273 0.272-0.424 0.633-0.424 1.019s0.151 0.746 0.424 1.020c0.281 0.279 0.65 0.419 1.020 0.419s0.739-0.14 1.021-0.419l1.136-1.132 1.506-1.124 0.779 0.776-1.524 1.517c0 0.001-0.001 0.001-0.002 0.001l-1.158 1.153c-0.273 0.272-0.424 0.633-0.424 1.019s0.151 0.746 0.424 1.020c0.281 0.279 0.651 0.419 1.021 0.419s0.739-0.14 1.021-0.419l3.011-2.998c0.001-0.001 0.001-0.001 0.001-0.002l0.873-0.865-0.003-0.003c0.005-0.005 0.013-0.008 0.019-0.013l4.468-4.893 3.002 0.427c0.022 0.003 0.043 0.004 0.065 0.004 0.056 0 0.11-0.013 0.162-0.033 0.016-0.005 0.029-0.013 0.043-0.020 0.016-0.009 0.034-0.013 0.050-0.023l2.779-1.845c0.010-0.007 0.016-0.018 0.025-0.025 0.011-0.009 0.025-0.012 0.035-0.023l1.099-1.030c0.573-0.536 0.651-1.414 0.183-2.043zM4.004 17.531c-0.15 0.080-0.32 0.096-0.483 0.045s-0.292-0.161-0.369-0.31c-0.139-0.272-0.059-0.601 0.185-0.78l1.136-0.547 0.388 1.136-0.858 0.456zM7.030 15.95l-1.339 0.692-0.38-1.11 1.753-0.866-0.035 1.283zM20.088 10.224c0 0.794-0.189 1.544-0.518 2.213l-3.616-1.642c-0.038-0.496-0.295-0.93-0.681-1.2l1.266-4.203c2.057 0.654 3.55 2.572 3.55 4.833zM9.892 10.224c0-2.798 2.287-5.074 5.098-5.074 0.219 0 0.432 0.018 0.644 0.045l-1.239 4.112c-0.016-0.001-0.032-0.005-0.049-0.005-0.893 0-1.62 0.724-1.62 1.615s0.726 1.615 1.62 1.615c0.6 0 1.119-0.331 1.399-0.817l3.34 1.518c-0.93 1.251-2.417 2.067-4.097 2.067-2.811 0-5.098-2.276-5.098-5.074zM15.043 10.916c0 0.381-0.313 0.692-0.697 0.692s-0.697-0.31-0.697-0.692c0-0.381 0.313-0.692 0.697-0.692s0.697 0.31 0.697 0.692zM4.294 23.91c-0.204 0.202-0.535 0.202-0.739 0.001-0.099-0.099-0.152-0.227-0.152-0.366s0.054-0.267 0.152-0.364l0.832-0.829 0.736 0.733-0.829 0.826zM7.074 27.139c-0.204 0.202-0.535 0.203-0.739 0.001-0.099-0.099-0.152-0.227-0.152-0.366s0.054-0.267 0.152-0.364l0.833-0.829 0.737 0.733-0.83 0.826zM10.084 24.139c-0.001 0-0.001 0-0.002 0.001l-1.527 1.522-0.737-0.733 1.525-1.518c0 0 0 0 0 0s0.001-0.001 0.002-0.001c0.035-0.035 0.056-0.076 0.078-0.117 0.006-0.012 0.017-0.023 0.023-0.035 0.015-0.035 0.016-0.073 0.023-0.112 0.003-0.022 0.012-0.041 0.012-0.063 0-0.031-0.011-0.061-0.017-0.092-0.005-0.028-0.005-0.056-0.016-0.082-0.017-0.043-0.048-0.081-0.079-0.119-0.009-0.010-0.012-0.023-0.022-0.033 0 0 0 0-0.001 0s-0.001-0.002-0.001-0.002l-1.39-1.384c-0.015-0.015-0.034-0.021-0.050-0.033-0.024-0.019-0.048-0.036-0.075-0.050-0.026-0.013-0.053-0.021-0.080-0.029-0.029-0.009-0.058-0.015-0.089-0.017-0.029-0.002-0.054 0.001-0.082 0.004-0.031 0.003-0.060 0.008-0.090 0.017s-0.054 0.023-0.081 0.039c-0.017 0.009-0.036 0.013-0.053 0.025l-1.533 1.145-0.779-0.776 2.075-2.064 3.772 3.709-0.803 0.795zM15.982 18.070c-0.013-0.002-0.026 0.003-0.039 0.003-0.034-0.002-0.066 0.001-0.099 0.006-0.026 0.004-0.051 0.009-0.076 0.018-0.029 0.010-0.056 0.024-0.084 0.041-0.026 0.016-0.049 0.032-0.072 0.053-0.011 0.009-0.024 0.015-0.035 0.025l-4.063 4.451-3.743-3.682 2.45-2.437c0.181-0.18 0.182-0.472 0.002-0.653-0.091-0.091-0.21-0.136-0.329-0.135v-0.001l-1.919 0.011 0.024-1.39 2.685 0.023c1.094 1.119 2.62 1.817 4.308 1.817 0.378 0 0.747-0.039 1.106-0.106 0.035 0.028 0.068 0.056 0.112 0.073l2.084 0.83 0.131 0.656 0.154 0.765-2.597-0.369zM19.477 18.224l-0.271-1.347 1.251-0.934 0.819 1.087-1.799 1.194zM22.723 15.776l-0.725 0.679-0.805-1.069 0.719-0.551c0.134-0.103 0.304-0.145 0.47-0.124 0.167 0.023 0.315 0.111 0.415 0.246 0.188 0.253 0.156 0.605-0.073 0.819z"></path>
<path fill="#212121" style="fill: var(--color1, #212121)" d="M13.926 18.2l-1.853-1.845c-0.179-0.179-0.471-0.179-0.651 0l-1.853 1.845c-0.086 0.087-0.136 0.204-0.136 0.327s0.048 0.24 0.136 0.327l1.853 1.845c0.090 0.089 0.208 0.134 0.326 0.134s0.236-0.045 0.325-0.134l1.853-1.845c0.086-0.087 0.136-0.204 0.136-0.327s-0.049-0.24-0.136-0.327zM11.747 19.721l-1.2-1.194 1.2-1.194 1.2 1.194-1.2 1.194z"></path>
<path fill="#212121" style="fill: var(--color1, #212121)" d="M17.007 6.548l-0.223 0.896c0.061 0.016 1.503 0.391 1.503 1.859h0.923c0-1.744-1.441-2.564-2.203-2.755z"></path>
<path fill="#212121" style="fill: var(--color1, #212121)" d="M19.209 10.224h-0.923v0.923h0.923v-0.923z"></path>
</symbol>
<symbol id="icon-clock-1" viewBox="0 0 32 32">
<title>clock-1</title>
<path fill="#212121" style="fill: var(--color1, #212121)" d="M29.23 15.395c-0.002-7.31-5.929-13.235-13.239-13.233s-13.235 5.929-13.233 13.239c0.001 5.758 3.725 10.855 9.21 12.606 0.053 0.016 0.107 0.025 0.162 0.025 0.105 0 0.207-0.028 0.296-0.081 0.117-0.069 0.204-0.179 0.245-0.308l3.343-10.595c0.914-0.004 1.651-0.749 1.646-1.663s-0.749-1.651-1.663-1.646c-0.246 0.001-0.489 0.058-0.709 0.165l-4.416-4.417c-0.219-0.212-0.568-0.206-0.78 0.014-0.207 0.214-0.207 0.553 0 0.766l4.413 4.419c-0.339 0.691-0.145 1.526 0.464 1.997l-3.185 10.096c-6.295-2.319-9.517-9.301-7.198-15.595s9.301-9.517 15.595-7.198 9.517 9.301 7.198 15.595c-1.133 3.075-3.46 5.562-6.454 6.896l-0.344-1.621c-0.063-0.297-0.355-0.489-0.654-0.425-0.094 0.020-0.181 0.064-0.253 0.128l-3.319 2.963c-0.227 0.202-0.248 0.551-0.045 0.778 0.066 0.073 0.151 0.129 0.245 0.159l4.237 1.352c0.29 0.093 0.6-0.067 0.694-0.356 0.029-0.092 0.035-0.189 0.015-0.284l-0.338-1.59c4.899-2.065 8.080-6.869 8.068-12.185zM15.993 14.845c0.304 0 0.552 0.247 0.552 0.552s-0.247 0.552-0.552 0.552c-0.304 0-0.552-0.246-0.552-0.552s0.246-0.552 0.552-0.552zM17.81 27.7l1.889-1.685 0.521 2.456-2.41-0.771z"></path>
<path fill="#2196f3" style="fill: var(--color2, #2196f3)" d="M15.441 4.917v1.103c0 0.304 0.246 0.552 0.552 0.552s0.552-0.247 0.552-0.552v-1.103c0-0.304-0.247-0.552-0.552-0.552s-0.552 0.247-0.552 0.552z"></path>
<path fill="#2196f3" style="fill: var(--color2, #2196f3)" d="M5.514 14.845c-0.304 0-0.552 0.247-0.552 0.552s0.247 0.552 0.552 0.552h1.103c0.304 0 0.552-0.246 0.552-0.552s-0.247-0.552-0.552-0.552h-1.103z"></path>
<path fill="#2196f3" style="fill: var(--color2, #2196f3)" d="M26.472 15.947c0.304 0 0.552-0.246 0.552-0.552s-0.247-0.552-0.552-0.552h-1.103c-0.304 0-0.552 0.247-0.552 0.552s0.247 0.552 0.552 0.552h1.103z"></path>
</symbol>
<symbol id="icon-diagram-1" viewBox="0 0 32 32">
<title>diagram-1</title>
<path fill="#2196f3" style="fill: var(--color2, #2196f3)" d="M15.071 15.105h0.922v4.15h-0.922v-4.149z"></path>
<path fill="#2196f3" style="fill: var(--color2, #2196f3)" d="M18.759 16.949h0.922v2.305h-0.922v-2.305z"></path>
<path fill="#2196f3" style="fill: var(--color2, #2196f3)" d="M11.383 18.332h0.922v0.922h-0.922v-0.922z"></path>
<path fill="#2196f3" style="fill: var(--color2, #2196f3)" d="M8.617 17.871h0.922v1.383h-0.922v-1.383z"></path>
<path fill="#212121" style="fill: var(--color1, #212121)" d="M3.545 26.63h22.129c0.764 0 1.383-0.619 1.383-1.383v-1.844c0-0.764-0.619-1.383-1.383-1.383h-0.461v-11.497l2.619-2.48c0.608 0.299 1.343 0.118 1.741-0.432s0.343-1.304-0.131-1.789-1.228-0.557-1.786-0.171c-0.557 0.386-0.755 1.117-0.469 1.731l-1.973 1.871v-1.064c0-0.764-0.619-1.383-1.383-1.383h-18.441c-0.764 0-1.383 0.619-1.383 1.383v13.831h-0.461c-0.764 0-1.383 0.619-1.383 1.383v1.844c0 0.764 0.619 1.383 1.383 1.383zM28.44 6.346c0.254 0 0.461 0.207 0.461 0.461s-0.207 0.461-0.461 0.461c-0.254 0-0.461-0.207-0.461-0.461s0.207-0.461 0.461-0.461zM4.928 8.189c0-0.254 0.207-0.461 0.461-0.461h18.441c0.254 0 0.461 0.207 0.461 0.461v1.936l-0.922 0.876v-1.891c0-0.254-0.207-0.461-0.461-0.461h-16.597c-0.254 0-0.461 0.207-0.461 0.461v11.525c0 0.254 0.207 0.461 0.461 0.461h16.597c0.254 0 0.461-0.207 0.461-0.461v-8.367l0.922-0.873v10.624h-19.363v-13.831zM9.078 14.183c-0.624-0.002-1.171 0.413-1.337 1.015s0.091 1.239 0.627 1.558c0.536 0.318 1.219 0.239 1.667-0.195l1.603 0.804c0.186 0.093 0.412 0.049 0.55-0.106l3.407-3.832 3.349 2.509c0.18 0.135 0.431 0.12 0.593-0.034l2.91-2.757v7.032h-15.675v-10.603h15.675v2.301l-3.261 3.089-3.376-2.531c-0.192-0.144-0.462-0.117-0.621 0.062l-3.453 3.886-1.291-0.645c0.009-0.055 0.016-0.112 0.017-0.167 0-0.764-0.619-1.383-1.383-1.383zM9.539 15.566c0 0.254-0.207 0.461-0.461 0.461s-0.461-0.207-0.461-0.461c0-0.254 0.207-0.461 0.461-0.461s0.461 0.207 0.461 0.461zM12.304 22.941h4.611v0.461c0 0.254-0.207 0.461-0.461 0.461h-3.688c-0.254 0-0.461-0.207-0.461-0.461v-0.461zM3.084 23.403c0-0.254 0.207-0.461 0.461-0.461h7.837v0.461c0 0.764 0.619 1.383 1.383 1.383h3.688c0.764 0 1.383-0.619 1.383-1.383v-0.461h7.837c0.254 0 0.461 0.207 0.461 0.461v1.844c0 0.254-0.207 0.461-0.461 0.461h-22.129c-0.254 0-0.461-0.207-0.461-0.461v-1.844z"></path>
</symbol>
<symbol id="icon-company-1" viewBox="0 0 32 32">
<title>company-1</title>
<path d="M7.676 2.595l4.023 3.809-7.467-0.004v18.478h19.518v-7.065l4.018 3.805v-19.021h-20.093zM23.574 17.365l-11.407-10.799h11.407v10.799zM20.032 22.173h-12.712v-12.427h0.899v11.586h11.813v0.841zM10.322 27.337l-0.47 0.967-0.47-0.967h-0.393l0.685 1.29v0.752h0.356v-0.752l0.684-1.29h-0.393zM10.912 29.377l0.165-0.475h0.79l0.167 0.475h0.37l-0.772-2.040h-0.318l-0.771 2.040h0.368zM11.472 27.77l0.296 0.847h-0.592l0.296-0.847zM13.342 28.567c-0.051 0.079-0.077 0.165-0.077 0.259 0 0.172 0.061 0.311 0.181 0.419 0.121 0.106 0.283 0.16 0.485 0.16s0.375-0.055 0.521-0.164l0.115 0.136h0.395l-0.3-0.355c0.118-0.161 0.176-0.367 0.176-0.618h-0.296c0 0.137-0.029 0.262-0.086 0.375l-0.393-0.465 0.138-0.101c0.098-0.071 0.169-0.142 0.212-0.213s0.065-0.151 0.065-0.235c0-0.129-0.048-0.237-0.143-0.324s-0.216-0.131-0.364-0.131c-0.164 0-0.295 0.047-0.393 0.14s-0.146 0.219-0.146 0.379c0 0.066 0.016 0.133 0.046 0.203 0.032 0.070 0.087 0.155 0.167 0.255-0.151 0.108-0.253 0.202-0.304 0.282zM14.263 29.019c-0.1 0.077-0.208 0.115-0.323 0.115-0.102 0-0.183-0.029-0.244-0.088s-0.091-0.136-0.091-0.23c0-0.11 0.056-0.207 0.168-0.291l0.043-0.031 0.445 0.526zM13.898 28.114c-0.096-0.119-0.144-0.217-0.144-0.296 0-0.068 0.020-0.125 0.059-0.169s0.092-0.067 0.158-0.067c0.061 0 0.112 0.019 0.153 0.057s0.061 0.083 0.061 0.136c0 0.080-0.029 0.146-0.087 0.198l-0.043 0.035-0.156 0.106zM17.219 29.223c0.14-0.123 0.221-0.292 0.241-0.51h-0.353c-0.019 0.146-0.063 0.25-0.133 0.312s-0.175 0.094-0.314 0.094c-0.152 0-0.268-0.058-0.348-0.174s-0.118-0.284-0.118-0.504v-0.181c0.002-0.218 0.044-0.382 0.126-0.495s0.201-0.169 0.356-0.169c0.132 0 0.233 0.033 0.301 0.098 0.069 0.065 0.112 0.17 0.129 0.317h0.353c-0.023-0.223-0.102-0.396-0.24-0.519s-0.318-0.183-0.544-0.183c-0.167 0-0.315 0.040-0.443 0.119s-0.225 0.193-0.293 0.339-0.102 0.317-0.102 0.509v0.19c0.003 0.188 0.038 0.353 0.105 0.495s0.163 0.252 0.286 0.329c0.125 0.077 0.267 0.115 0.43 0.115 0.233 0 0.419-0.061 0.56-0.183zM19.303 28.938c0.069-0.151 0.104-0.327 0.104-0.527v-0.113c-0.001-0.199-0.036-0.373-0.106-0.522s-0.169-0.265-0.298-0.345c-0.128-0.080-0.275-0.12-0.441-0.12s-0.314 0.041-0.443 0.122c-0.128 0.080-0.227 0.196-0.298 0.349s-0.105 0.328-0.105 0.527v0.115c0.001 0.195 0.036 0.368 0.106 0.517s0.171 0.265 0.3 0.346c0.13 0.080 0.278 0.12 0.443 0.12 0.167 0 0.315-0.040 0.443-0.12s0.228-0.197 0.297-0.348zM18.923 27.784c0.086 0.12 0.129 0.294 0.129 0.52v0.106c0 0.23-0.042 0.405-0.128 0.524-0.084 0.119-0.205 0.179-0.361 0.179-0.155 0-0.277-0.061-0.364-0.183s-0.131-0.296-0.131-0.52v-0.118c0.002-0.22 0.046-0.389 0.131-0.509 0.087-0.12 0.207-0.181 0.361-0.181 0.157 0 0.278 0.061 0.363 0.181z"></path>
</symbol>
<symbol id="icon-company-2" viewBox="0 0 32 32">
<title>company-2</title>
<path d="M14.474 5.535h-0.062c-0.095-0.006-0.19-0.008-0.285-0.010v0h-0.207c-0.18 0-0.364 0.004-0.547 0.014-0.014-0.001-0.028-0.001-0.041 0-1.654 0.093-3.274 0.507-4.771 1.217l-0.196 0.094v10.045l0.459-0.156c0.403-0.138 0.832-0.263 1.277-0.379 1.2-0.308 2.434-0.472 3.673-0.488v1.32c-0.164 0.001-0.323 0.006-0.483 0.014h-0.038c-0.954 0.053-1.9 0.197-2.825 0.434-1.173 0.293-2.303 0.734-3.366 1.312v-12.884c1.104-0.643 2.293-1.128 3.531-1.437 1.088-0.281 2.205-0.425 3.328-0.429h0.194c0.232 0.006 0.458 0.016 0.67 0.032 0.56 0.039 1.114 0.128 1.659 0.264v1.299c-0.528-0.123-1.066-0.204-1.607-0.242-0.011-0.001-0.022-0.002-0.033-0.003-0.112-0.010-0.224-0.019-0.329-0.019zM16.76 6.864c0.288 0.022 0.586 0.032 0.888 0.032 1.181-0.004 2.356-0.155 3.499-0.449 1.172-0.295 2.302-0.736 3.365-1.313v12.654c-1.104 0.643-2.294 1.127-3.533 1.437-1.088 0.279-2.205 0.424-3.329 0.428-0.851 0.007-1.699-0.093-2.525-0.297v-12.736c0.195 0.045 0.396 0.087 0.6 0.121 0.335 0.056 0.688 0.098 1.033 0.124zM23.201 6.961l-0.459 0.155c-0.422 0.142-0.848 0.269-1.277 0.382-1.246 0.32-2.527 0.484-3.814 0.489-0.299 0-0.575-0.008-0.841-0.025l-0.366-0.024v10.334l0.315 0.028c0.291 0.025 0.592 0.038 0.895 0.038 1.014-0.004 2.022-0.135 3.004-0.389 0.808-0.202 1.594-0.485 2.347-0.843l0.196-0.094v-10.049z"></path>
<path d="M7.952 23.356c-0.066-0.068-0.145-0.122-0.234-0.157s-0.183-0.052-0.278-0.048c-0.101-0.002-0.202 0.017-0.295 0.055-0.086 0.035-0.164 0.086-0.229 0.151s-0.115 0.144-0.148 0.231c-0.036 0.091-0.054 0.188-0.053 0.285v1.721c-0.004 0.121 0.019 0.242 0.067 0.353 0.041 0.088 0.099 0.167 0.172 0.231 0.069 0.058 0.15 0.099 0.236 0.122 0.084 0.023 0.17 0.035 0.257 0.035 0.096 0.001 0.191-0.020 0.278-0.060 0.086-0.038 0.164-0.092 0.229-0.159s0.115-0.145 0.15-0.231c0.037-0.087 0.055-0.18 0.055-0.274v-0.193h-0.45v0.153c0.002 0.053-0.008 0.105-0.027 0.153-0.015 0.036-0.037 0.070-0.066 0.097-0.028 0.023-0.060 0.040-0.094 0.049-0.030 0.010-0.062 0.016-0.094 0.016-0.040 0.004-0.080-0.002-0.118-0.017s-0.069-0.042-0.093-0.074c-0.042-0.069-0.063-0.15-0.060-0.231v-1.605c-0.003-0.089 0.016-0.177 0.055-0.257 0.023-0.036 0.056-0.066 0.095-0.084s0.082-0.025 0.125-0.020c0.039-0.002 0.077 0.007 0.112 0.023s0.066 0.042 0.088 0.073c0.050 0.066 0.077 0.148 0.074 0.231v0.149h0.445v-0.176c0.001-0.103-0.018-0.205-0.055-0.301-0.033-0.090-0.085-0.173-0.151-0.242v0z"></path>
<path d="M10.625 23.336c-0.144-0.121-0.324-0.188-0.512-0.189-0.092 0-0.182 0.016-0.269 0.048s-0.168 0.079-0.238 0.141c-0.074 0.067-0.134 0.15-0.175 0.241-0.045 0.105-0.067 0.219-0.066 0.334v1.651c-0.003 0.116 0.019 0.232 0.066 0.338 0.041 0.089 0.1 0.168 0.175 0.231 0.069 0.064 0.15 0.113 0.238 0.145 0.086 0.032 0.177 0.048 0.269 0.048s0.182-0.016 0.268-0.048c0.090-0.033 0.172-0.082 0.243-0.145s0.13-0.143 0.169-0.231c0.046-0.106 0.068-0.222 0.066-0.338v-1.651c0.003-0.114-0.020-0.228-0.066-0.334-0.040-0.091-0.098-0.173-0.169-0.241v0zM10.415 25.562c0.003 0.044-0.003 0.088-0.018 0.13s-0.040 0.079-0.072 0.109c-0.060 0.050-0.134 0.077-0.212 0.077s-0.152-0.028-0.212-0.077c-0.032-0.030-0.056-0.067-0.072-0.109s-0.022-0.086-0.018-0.13v-1.651c-0.003-0.044 0.003-0.088 0.018-0.13s0.040-0.079 0.072-0.109c0.060-0.050 0.134-0.077 0.212-0.077s0.152 0.028 0.212 0.077c0.032 0.030 0.056 0.067 0.072 0.109s0.022 0.086 0.018 0.13v1.651z"></path>
<path d="M14.135 26.299v-3.126h-0.432l-0.568 1.654h-0.008l-0.573-1.654h-0.428v3.126h0.446v-1.901h0.008l0.438 1.344h0.222l0.441-1.344h0.008v1.901h0.446z"></path>
<path d="M16.672 23.393c-0.069-0.077-0.156-0.136-0.253-0.17-0.105-0.034-0.214-0.050-0.323-0.048h-0.663v3.126h0.445v-1.22h0.229c0.139 0.006 0.278-0.023 0.401-0.086 0.101-0.056 0.186-0.138 0.245-0.239 0.052-0.083 0.087-0.176 0.102-0.272 0.017-0.118 0.026-0.236 0.024-0.355 0.004-0.151-0.010-0.3-0.043-0.446-0.029-0.108-0.087-0.207-0.164-0.287v0zM16.443 24.346c-0.002 0.056-0.016 0.112-0.041 0.163-0.025 0.048-0.066 0.087-0.115 0.11-0.066 0.029-0.137 0.043-0.21 0.039h-0.203v-1.063h0.229c0.069-0.003 0.138 0.010 0.201 0.039 0.046 0.027 0.083 0.067 0.105 0.115 0.024 0.055 0.038 0.114 0.039 0.174 0 0.066 0 0.135 0 0.208s0.004 0.148 0 0.215h-0.004z"></path>
<path d="M18.781 23.173h-0.365l-0.688 3.126h0.445l0.131-0.671h0.607l0.131 0.671h0.445l-0.706-3.126zM18.371 25.202l0.219-1.133h0.008l0.218 1.133h-0.445z"></path>
<path d="M21.659 25.056h-0.008l-0.673-1.883h-0.428v3.126h0.445v-1.879h0.009l0.681 1.879h0.419v-3.126h-0.445v1.883z"></path>
<path d="M24.381 23.173l-0.358 1.243h-0.009l-0.358-1.243h-0.471l0.611 1.804v1.321h0.445v-1.321l0.611-1.804h-0.471z"></path>
<path d="M6.71 27.181h0.215v0.602h0.145v-0.602h0.214v-0.124h-0.574v0.124z"></path>
<path d="M8.514 27.058l-0.281 0.726h0.155l0.060-0.165h0.289l0.062 0.165h0.158l-0.288-0.726h-0.155zM8.491 27.497l0.099-0.269 0.099 0.269h-0.197z"></path>
<path d="M10.298 27.516h0.168v0.093c-0.049 0.039-0.11 0.061-0.172 0.061-0.029 0.002-0.059-0.003-0.086-0.016s-0.050-0.030-0.068-0.054c-0.038-0.055-0.057-0.122-0.054-0.189 0-0.162 0.070-0.242 0.209-0.242 0.036-0.003 0.073 0.006 0.103 0.027s0.052 0.053 0.061 0.088l0.144-0.028c-0.031-0.142-0.133-0.214-0.308-0.214-0.093-0.003-0.184 0.031-0.253 0.093-0.036 0.036-0.065 0.080-0.083 0.128s-0.025 0.099-0.022 0.151c-0.004 0.099 0.029 0.196 0.093 0.272 0.035 0.036 0.079 0.065 0.126 0.083s0.099 0.026 0.15 0.023c0.113 0.003 0.224-0.038 0.308-0.115v-0.286h-0.315v0.122z"></path>
<path d="M12.119 27.058h-0.147v0.726h0.509v-0.124h-0.361v-0.602z"></path>
<path d="M13.66 27.058h-0.147v0.726h0.147v-0.726z"></path>
<path d="M15.165 27.543l-0.297-0.484h-0.143v0.726h0.137v-0.474l0.291 0.474h0.146v-0.726h-0.134v0.484z"></path>
<path d="M16.527 27.464h0.361v-0.124h-0.361v-0.159h0.389v-0.124h-0.536v0.726h0.551v-0.124h-0.404v-0.196z"></path>
<path d="M19.827 27.344h-0.285v-0.286h-0.146v0.726h0.146v-0.317h0.285v0.317h0.146v-0.726h-0.146v0.286z"></path>
<path d="M21.196 27.464h0.362v-0.124h-0.362v-0.159h0.39v-0.124h-0.536v0.726h0.55v-0.124h-0.404v-0.196z"></path>
<path d="M23.054 27.464c0.126-0.020 0.19-0.087 0.19-0.201 0.003-0.031-0.001-0.062-0.014-0.091s-0.033-0.053-0.058-0.071c-0.066-0.033-0.139-0.048-0.212-0.042h-0.308v0.726h0.146v-0.304h0.029c0.031-0.002 0.062 0.003 0.091 0.016 0.022 0.013 0.039 0.031 0.052 0.053l0.158 0.231h0.175l-0.088-0.142c-0.039-0.070-0.094-0.13-0.161-0.174v0zM22.907 27.363h-0.108v-0.183h0.115c0.050-0.004 0.1 0.002 0.148 0.017 0.010 0.009 0.019 0.021 0.024 0.034s0.008 0.027 0.008 0.041c-0.001 0.014-0.004 0.028-0.011 0.041s-0.016 0.023-0.028 0.032c-0.048 0.015-0.098 0.021-0.148 0.017v0z"></path>
<path d="M24.454 27.464h0.361v-0.124h-0.361v-0.159h0.39v-0.124h-0.537v0.726h0.551v-0.124h-0.404v-0.196z"></path>
</symbol>
<symbol id="icon-company-3" viewBox="0 0 32 32">
<title>company-3</title>
<path d="M9.079 25.138c0.007 0 0.015 0.002 0.022 0.004s0.013 0.006 0.017 0.011l0.1 0.096c-0.078 0.078-0.175 0.14-0.283 0.183-0.127 0.046-0.264 0.068-0.401 0.066-0.129 0.003-0.258-0.018-0.377-0.061-0.108-0.039-0.205-0.098-0.285-0.173-0.081-0.077-0.144-0.168-0.183-0.266-0.044-0.11-0.066-0.226-0.064-0.343-0.002-0.117 0.022-0.233 0.069-0.343 0.044-0.099 0.11-0.19 0.195-0.266s0.189-0.134 0.302-0.174c0.124-0.041 0.256-0.062 0.388-0.061 0.124-0.003 0.246 0.016 0.361 0.055 0.099 0.037 0.191 0.090 0.271 0.154l-0.084 0.103c-0.006 0.007-0.013 0.014-0.022 0.018-0.009 0.006-0.022 0.009-0.034 0.008s-0.026-0.004-0.036-0.011l-0.045-0.028-0.063-0.035c-0.027-0.013-0.055-0.024-0.084-0.034-0.037-0.011-0.075-0.021-0.114-0.028-0.049-0.008-0.099-0.011-0.15-0.011-0.096-0.001-0.19 0.015-0.279 0.046-0.083 0.029-0.157 0.073-0.219 0.129-0.063 0.060-0.111 0.13-0.142 0.206-0.035 0.087-0.053 0.179-0.052 0.271-0.002 0.093 0.016 0.187 0.052 0.275 0.030 0.075 0.078 0.144 0.139 0.204 0.058 0.055 0.129 0.099 0.208 0.127 0.082 0.029 0.17 0.044 0.259 0.043 0.051 0.001 0.103-0.003 0.153-0.009 0.083-0.009 0.163-0.034 0.233-0.073 0.035-0.020 0.068-0.042 0.099-0.067 0.013-0.010 0.030-0.017 0.048-0.017v0z"></path>
<path d="M11.984 24.655c0.002 0.116-0.022 0.231-0.068 0.34-0.041 0.099-0.105 0.189-0.189 0.264s-0.185 0.134-0.297 0.173c-0.246 0.081-0.518 0.081-0.765 0-0.112-0.040-0.212-0.099-0.296-0.174-0.084-0.077-0.149-0.168-0.191-0.266-0.091-0.221-0.091-0.461 0-0.681 0.043-0.099 0.108-0.19 0.191-0.268 0.084-0.073 0.185-0.13 0.296-0.167 0.246-0.083 0.519-0.083 0.765 0 0.112 0.040 0.213 0.099 0.297 0.174s0.147 0.165 0.19 0.263c0.047 0.11 0.070 0.226 0.068 0.342zM11.721 24.655c0.002-0.093-0.014-0.185-0.048-0.273-0.029-0.075-0.074-0.145-0.135-0.204-0.059-0.056-0.131-0.1-0.213-0.129-0.179-0.060-0.377-0.060-0.556 0-0.081 0.029-0.154 0.073-0.213 0.129-0.061 0.059-0.108 0.129-0.136 0.204-0.064 0.178-0.064 0.368 0 0.547 0.029 0.075 0.074 0.145 0.136 0.204 0.059 0.056 0.131 0.099 0.213 0.128 0.179 0.058 0.377 0.058 0.556 0 0.081-0.029 0.154-0.072 0.213-0.128 0.061-0.060 0.106-0.129 0.135-0.204 0.034-0.088 0.050-0.181 0.048-0.273v0z"></path>
<path d="M13.967 24.941l0.027 0.061c0.010-0.022 0.019-0.041 0.029-0.061s0.021-0.041 0.033-0.061l0.643-1.015c0.013-0.017 0.024-0.029 0.036-0.032 0.017-0.004 0.035-0.006 0.053-0.005h0.19v1.651h-0.225v-1.214c0-0.016 0-0.033 0-0.051s-0.001-0.038 0-0.057l-0.646 1.029c-0.008 0.016-0.022 0.029-0.038 0.037s-0.035 0.014-0.055 0.014h-0.036c-0.020 0-0.039-0.004-0.055-0.014s-0.029-0.023-0.038-0.038l-0.665-1.036c0 0.020 0 0.040 0 0.059s0 0.037 0 0.053v1.214h-0.218v-1.648h0.19c0.018-0.001 0.035 0.001 0.053 0.005 0.016 0.007 0.028 0.018 0.035 0.032l0.656 1.016c0.013 0.019 0.024 0.039 0.033 0.059v0z"></path>
<path d="M16.385 24.859v0.618h-0.252v-1.648h0.561c0.105-0.002 0.212 0.010 0.313 0.036 0.081 0.020 0.157 0.055 0.221 0.103 0.056 0.045 0.099 0.1 0.125 0.162 0.029 0.067 0.044 0.139 0.042 0.211 0.001 0.073-0.015 0.144-0.047 0.211-0.030 0.063-0.077 0.119-0.136 0.165-0.065 0.049-0.14 0.087-0.222 0.109-0.098 0.027-0.201 0.040-0.303 0.038l-0.304-0.004zM16.385 24.682h0.304c0.066 0.001 0.132-0.008 0.195-0.025 0.052-0.016 0.1-0.040 0.141-0.071 0.038-0.030 0.067-0.067 0.086-0.109 0.021-0.044 0.031-0.091 0.030-0.138 0.003-0.046-0.006-0.092-0.025-0.134s-0.049-0.081-0.088-0.112c-0.096-0.065-0.217-0.097-0.338-0.088h-0.304v0.68z"></path>
<path d="M19.766 25.48h-0.199c-0.020 0.001-0.040-0.005-0.055-0.016-0.014-0.010-0.025-0.023-0.033-0.038l-0.171-0.399h-0.859l-0.177 0.399c-0.007 0.015-0.017 0.028-0.031 0.037-0.016 0.011-0.036 0.017-0.056 0.016h-0.199l0.754-1.651h0.261l0.765 1.651zM18.52 24.867h0.709l-0.299-0.672c-0.023-0.050-0.041-0.102-0.056-0.155l-0.029 0.087c-0.009 0.026-0.019 0.050-0.028 0.070l-0.297 0.671z"></path>
<path d="M20.852 23.837c0.015 0.007 0.028 0.017 0.038 0.029l1.1 1.245c0-0.020 0-0.040 0-0.058s0-0.037 0-0.055v-1.169h0.225v1.651h-0.125c-0.018 0.001-0.035-0.003-0.052-0.009s-0.029-0.018-0.041-0.030l-1.099-1.244c0.001 0.019 0.001 0.038 0 0.057s0 0.035 0 0.050v1.177h-0.225v-1.651h0.133c0.016 0 0.031 0.003 0.045 0.008v0z"></path>
<path d="M24.069 24.823v0.656h-0.252v-0.656l-0.695-0.995h0.225c0.019-0.001 0.039 0.004 0.055 0.014 0.014 0.010 0.025 0.023 0.034 0.037l0.435 0.642c0.017 0.028 0.033 0.053 0.045 0.076s0.023 0.047 0.031 0.070l0.033-0.071c0.012-0.026 0.027-0.051 0.042-0.075l0.429-0.646c0.009-0.013 0.020-0.024 0.033-0.035 0.015-0.011 0.035-0.017 0.055-0.016h0.227l-0.697 0.999z"></path>
<path d="M13.842 21.058c0.11 0.012 0.22 0.022 0.332 0.030 1.697-0.66 3.133-1.739 4.127-3.103s1.505-2.954 1.466-4.568l-1.87-1.625c0.381 1.719 0.202 3.497-0.514 5.133s-1.942 3.068-3.541 4.133v0z"></path>
<path d="M13.175 20.983l0.050 0.009c1.708-1.062 3.011-2.544 3.739-4.256s0.848-3.575 0.345-5.346l-2.664-2.314c1.078 1.903 1.511 4.031 1.251 6.139s-1.205 4.108-2.722 5.769v0z"></path>
<path d="M22.207 15.325c-0.452 1.775-1.552 3.375-3.134 4.563-0.462 0.349-0.961 0.66-1.489 0.929 1.289-0.329 2.473-0.911 3.462-1.7s1.756-1.766 2.242-2.854l-1.080-0.938z"></path>
<path d="M21.783 15.063l-1.538-1.336c-0.029 1.524-0.528 3.012-1.443 4.312s-2.216 2.362-3.764 3.078h0.008c0.345 0 0.69-0.018 1.033-0.054 1.447-0.513 2.725-1.329 3.721-2.377s1.678-2.292 1.985-3.623v0z"></path>
<path d="M13.397 8.099l-1.835-1.597c-1.641 0.551-3.051 1.519-4.048 2.778s-1.533 2.749-1.538 4.278v0c0.006 1.688 0.66 3.326 1.859 4.656s2.873 2.273 4.758 2.682c1.683-1.782 2.668-3.983 2.813-6.284s-0.56-4.583-2.009-6.512v0z"></path>
<path d="M26.023 14.818c-0.007-2.003-0.925-3.922-2.556-5.339s-3.839-2.215-6.145-2.22v0c-1.066-0.001-2.122 0.17-3.115 0.503l11.235 9.761c0.385-0.863 0.582-1.78 0.581-2.705v0z"></path>
</symbol>
<symbol id="icon-company-4" viewBox="0 0 33 32">
<title>company-4</title>
<path d="M7.788 12.857h-0.001c-0.953 0-1.725 0.687-1.725 1.533v0.001c0 0.847 0.772 1.533 1.725 1.533h0.001c0.953 0 1.725-0.687 1.725-1.533v-0.001c0-0.847-0.772-1.533-1.725-1.533z"></path>
<path d="M20.524 12.367c-0.003-1.176-0.529-2.304-1.465-3.135s-2.205-1.301-3.528-1.303v0c-1.324 0.003-2.593 0.47-3.53 1.303s-1.463 1.96-1.466 3.136v0 6.486c0 0 9.987-0.989 9.989-6.486v-0.001z"></path>
<path d="M2.563 20.983c0.003 0.818 0.369 1.603 1.021 2.182s1.533 0.905 2.454 0.907v0c0.921-0.003 1.803-0.329 2.454-0.907s1.018-1.363 1.021-2.181v0-4.514c0 0-6.95 0.688-6.95 4.513zM6.038 21.791c-0.18 0-0.356-0.048-0.506-0.137s-0.266-0.215-0.336-0.363c-0.069-0.148-0.087-0.311-0.052-0.467s0.122-0.301 0.249-0.414 0.29-0.19 0.466-0.221c0.176-0.031 0.36-0.016 0.526 0.046s0.309 0.165 0.408 0.297 0.153 0.289 0.153 0.449c0 0.106-0.022 0.212-0.068 0.311s-0.112 0.188-0.197 0.264c-0.085 0.075-0.185 0.135-0.296 0.176s-0.229 0.062-0.349 0.062v-0.003z"></path>
<path d="M13.062 21.346h-0.67v0.693h-0.349v-1.695h1.104v0.283h-0.754v0.438h0.67v0.282zM14.741 21.229c0 0.167-0.029 0.313-0.088 0.439s-0.144 0.223-0.253 0.291c-0.109 0.068-0.235 0.102-0.377 0.102-0.14 0-0.265-0.034-0.376-0.101s-0.195-0.163-0.256-0.289c-0.061-0.125-0.091-0.27-0.092-0.433v-0.084c0-0.167 0.030-0.314 0.090-0.44s0.145-0.225 0.255-0.292c0.11-0.068 0.236-0.102 0.377-0.102s0.266 0.034 0.376 0.102c0.11 0.067 0.195 0.165 0.255 0.292s0.091 0.272 0.091 0.439v0.076zM14.387 21.153c0-0.178-0.032-0.313-0.095-0.405s-0.155-0.138-0.272-0.138c-0.118 0-0.208 0.046-0.272 0.137s-0.096 0.224-0.097 0.4v0.083c0 0.173 0.032 0.307 0.095 0.403s0.155 0.144 0.275 0.144c0.118 0 0.208-0.046 0.27-0.137s0.094-0.227 0.095-0.403v-0.083zM15.874 21.594c0-0.066-0.023-0.117-0.070-0.151s-0.131-0.073-0.252-0.112c-0.121-0.040-0.217-0.079-0.288-0.117-0.193-0.104-0.289-0.244-0.289-0.42 0-0.092 0.026-0.173 0.077-0.245s0.126-0.128 0.222-0.169c0.097-0.041 0.206-0.061 0.326-0.061s0.229 0.023 0.323 0.067c0.094 0.043 0.168 0.105 0.22 0.185s0.080 0.17 0.080 0.272h-0.349c0-0.078-0.024-0.137-0.073-0.181s-0.118-0.065-0.206-0.065c-0.086 0-0.151 0.018-0.199 0.055s-0.071 0.083-0.071 0.142c0 0.055 0.028 0.101 0.083 0.138s0.137 0.073 0.246 0.105c0.199 0.060 0.343 0.134 0.434 0.222s0.136 0.199 0.136 0.33c0 0.147-0.055 0.262-0.167 0.346s-0.26 0.125-0.448 0.125c-0.131 0-0.249-0.023-0.356-0.071s-0.189-0.113-0.246-0.196c-0.056-0.083-0.084-0.179-0.084-0.289h0.35c0 0.187 0.112 0.28 0.336 0.28 0.083 0 0.148-0.016 0.195-0.050s0.070-0.081 0.070-0.142zM17.738 20.626h-0.519v1.412h-0.349v-1.412h-0.512v-0.283h1.381v0.283zM18.958 21.304h-0.67v0.454h0.787v0.28h-1.136v-1.695h1.134v0.283h-0.784v0.404h0.67v0.273zM19.907 21.418h-0.279v0.621h-0.349v-1.695h0.63c0.201 0 0.355 0.045 0.464 0.134s0.163 0.215 0.163 0.378c0 0.116-0.025 0.212-0.075 0.29s-0.125 0.138-0.227 0.184l0.367 0.693v0.016h-0.375l-0.317-0.621zM19.628 21.135h0.282c0.087 0 0.156-0.023 0.204-0.067s0.072-0.106 0.072-0.185c0-0.080-0.023-0.143-0.068-0.189s-0.114-0.068-0.208-0.068h-0.28v0.509zM21.744 21.441v0.598h-0.349v-1.695h0.662c0.127 0 0.239 0.023 0.336 0.070s0.171 0.113 0.223 0.199c0.052 0.086 0.078 0.183 0.078 0.292 0 0.166-0.057 0.297-0.171 0.393s-0.271 0.144-0.471 0.144h-0.306zM21.744 21.158h0.312c0.093 0 0.163-0.022 0.211-0.065s0.073-0.105 0.073-0.186c0-0.083-0.024-0.151-0.073-0.201s-0.117-0.078-0.202-0.080h-0.32v0.532zM23.954 21.304h-0.67v0.454h0.787v0.28h-1.136v-1.695h1.134v0.283h-0.784v0.404h0.67v0.273zM25.575 20.626h-0.519v1.412h-0.349v-1.412h-0.512v-0.283h1.381v0.283zM26.795 21.304h-0.67v0.454h0.787v0.28h-1.136v-1.695h1.134v0.283h-0.784v0.404h0.67v0.273zM27.744 21.418h-0.279v0.621h-0.349v-1.695h0.63c0.201 0 0.355 0.045 0.464 0.134s0.163 0.215 0.163 0.378c0 0.116-0.025 0.212-0.075 0.29s-0.125 0.138-0.227 0.184l0.367 0.693v0.016h-0.375l-0.317-0.621zM27.465 21.135h0.282c0.087 0 0.156-0.023 0.204-0.067s0.073-0.106 0.073-0.185c0-0.080-0.023-0.143-0.068-0.189s-0.114-0.068-0.208-0.068h-0.28v0.509zM29.519 21.594c0-0.066-0.023-0.117-0.070-0.151s-0.131-0.073-0.252-0.112c-0.121-0.040-0.217-0.079-0.287-0.117-0.193-0.104-0.289-0.244-0.289-0.42 0-0.092 0.026-0.173 0.077-0.245s0.126-0.128 0.222-0.169c0.097-0.041 0.206-0.061 0.326-0.061s0.229 0.023 0.323 0.067c0.094 0.043 0.168 0.105 0.22 0.185s0.080 0.17 0.080 0.272h-0.349c0-0.078-0.024-0.137-0.073-0.181s-0.118-0.065-0.206-0.065c-0.086 0-0.151 0.018-0.199 0.055s-0.071 0.083-0.071 0.142c0 0.055 0.028 0.101 0.083 0.138s0.137 0.073 0.246 0.105c0.199 0.060 0.343 0.134 0.434 0.222s0.136 0.199 0.136 0.33c0 0.147-0.055 0.262-0.166 0.346s-0.26 0.125-0.448 0.125c-0.131 0-0.249-0.023-0.356-0.071s-0.189-0.113-0.246-0.196c-0.056-0.083-0.084-0.179-0.084-0.289h0.35c0 0.187 0.112 0.28 0.336 0.28 0.083 0 0.148-0.016 0.195-0.050s0.070-0.081 0.070-0.142z"></path>
</symbol>
<symbol id="icon-company-5" viewBox="0 0 35 32">
<title>company-5</title>
<path d="M4.852 23.035c0.112 0.127 0.172 0.287 0.17 0.451 0.006 0.106-0.015 0.214-0.061 0.312s-0.114 0.187-0.202 0.257c-0.218 0.151-0.489 0.225-0.762 0.208h-1.34v-2.856h1.312c0.259-0.016 0.515 0.051 0.726 0.189 0.085 0.065 0.152 0.147 0.196 0.24s0.064 0.194 0.059 0.295c0.008 0.157-0.047 0.312-0.152 0.437-0.102 0.113-0.242 0.192-0.4 0.223 0.177 0.029 0.338 0.116 0.452 0.244v0zM3.28 22.604h0.56c0.127 0.009 0.254-0.025 0.356-0.095 0.042-0.035 0.075-0.078 0.096-0.126s0.029-0.1 0.024-0.152c0.004-0.052-0.004-0.104-0.025-0.151s-0.053-0.092-0.093-0.127c-0.106-0.072-0.236-0.106-0.368-0.096h-0.552v0.749zM4.253 23.699c0.045-0.035 0.080-0.080 0.104-0.131s0.033-0.105 0.029-0.159c0.003-0.055-0.007-0.11-0.030-0.161s-0.060-0.096-0.106-0.132c-0.11-0.074-0.245-0.111-0.381-0.103h-0.588v0.785h0.596c0.134 0.007 0.267-0.028 0.376-0.099v0z"></path>
<path d="M7.533 24.263l-0.73-1.117h-0.274v1.117h-0.628v-2.856h1.188c0.299-0.019 0.596 0.067 0.828 0.243 0.166 0.155 0.266 0.359 0.283 0.576s-0.053 0.432-0.194 0.605c-0.147 0.154-0.347 0.256-0.566 0.291l0.777 1.142h-0.682zM6.529 22.757h0.514c0.356 0 0.534-0.144 0.534-0.432 0.003-0.059-0.006-0.118-0.029-0.173s-0.057-0.105-0.102-0.148c-0.112-0.086-0.258-0.127-0.404-0.116h-0.52l0.006 0.869z"></path>
<path d="M10.965 23.688h-1.251l-0.221 0.575h-0.658l1.149-2.824h0.712l1.144 2.824h-0.658l-0.216-0.575zM10.797 23.255l-0.457-1.206-0.457 1.206h0.914z"></path>
<path d="M15.261 24.263h-0.624l-1.398-1.942v1.942h-0.622v-2.856h0.622l1.398 1.953v-1.953h0.624v2.856z"></path>
<path d="M18.817 23.579c-0.129 0.215-0.325 0.391-0.564 0.503-0.272 0.125-0.573 0.188-0.876 0.18h-1.11v-2.856h1.11c0.304-0.007 0.604 0.053 0.876 0.176 0.239 0.11 0.435 0.284 0.564 0.498 0.128 0.233 0.195 0.489 0.195 0.749s-0.067 0.517-0.195 0.749v0zM18.103 23.511c0.178-0.189 0.276-0.432 0.276-0.681s-0.098-0.492-0.276-0.681c-0.215-0.172-0.496-0.259-0.78-0.243h-0.432v1.848h0.432c0.285 0.016 0.566-0.071 0.78-0.243z"></path>
<path d="M11.355 5.521c0 0 8.044 2.781 7.873 6.804v6.806c0 0-8.038-2.782-7.87-6.806l-0.003-6.804z"></path>
<path d="M26.394 17.539c1.52-0.957 3.276-1.55 5.111-1.725v-2.13c-2.114 0.745-3.907 2.098-5.111 3.855v0z"></path>
<path d="M25.482 18.18c1.244-2.293 3.399-4.061 6.023-4.943v-6.139c0 0-11.455 3.961-11.213 9.691v9.689c0 0 0.51-0.177 1.314-0.509 0-0.31 0-0.622 0.036-0.936 0.237-2.66 1.618-5.125 3.84-6.853v0z"></path>
<path d="M24.392 21.78c0.061-0.672 0.195-1.337 0.4-1.984-1.383 1.492-2.221 3.344-2.396 5.295-0.016 0.184-0.026 0.368-0.030 0.558 0.65-0.286 1.408-0.643 2.204-1.063-0.203-0.923-0.263-1.867-0.178-2.806v0z"></path>
<path d="M24.848 21.814c-0.076 0.849-0.029 1.703 0.142 2.541 3.13-1.715 6.646-4.364 6.511-7.566v-0.279c-2.236 0.229-4.328 1.124-5.955 2.548-0.381 0.882-0.616 1.811-0.698 2.757v0z"></path>
</symbol>
<symbol id="icon-company-6" viewBox="0 0 32 32">
<title>company-6</title>
<path d="M16.156 15.61c-0.131-0.174-0.194-0.38-0.178-0.586v-0.851c0-0.261 0.059-0.459 0.177-0.594s0.322-0.203 0.61-0.202c0.271 0 0.463 0.058 0.576 0.173 0.124 0.147 0.184 0.327 0.17 0.509v0.2h-0.484v-0.202c0.002-0.067-0.003-0.132-0.014-0.198-0.007-0.045-0.031-0.086-0.069-0.118-0.049-0.034-0.112-0.050-0.176-0.046-0.067-0.004-0.132 0.013-0.184 0.048-0.042 0.035-0.070 0.080-0.080 0.13-0.014 0.069-0.020 0.14-0.019 0.21v1.033c-0.008 0.099 0.014 0.199 0.062 0.29 0.024 0.030 0.057 0.055 0.097 0.070s0.082 0.021 0.125 0.016c0.062 0.004 0.124-0.012 0.171-0.047 0.040-0.034 0.065-0.078 0.073-0.125 0.011-0.068 0.016-0.137 0.015-0.207v-0.209h0.484v0.191c0.014 0.189-0.045 0.377-0.168 0.534-0.112 0.126-0.301 0.189-0.579 0.189s-0.489-0.067-0.609-0.208z"></path>
<path d="M18.172 15.619c-0.122-0.132-0.183-0.325-0.183-0.58v-0.895c0-0.253 0.061-0.444 0.183-0.573s0.327-0.195 0.613-0.194c0.285 0 0.489 0.065 0.611 0.194s0.184 0.321 0.184 0.573v0.895c0 0.253-0.062 0.446-0.187 0.579s-0.327 0.2-0.609 0.2-0.49-0.067-0.613-0.199zM19.011 15.404c0.044-0.083 0.064-0.174 0.058-0.265v-1.096c0.005-0.089-0.014-0.178-0.057-0.259-0.024-0.031-0.059-0.056-0.099-0.072s-0.085-0.021-0.128-0.016c-0.043-0.005-0.087 0-0.128 0.016s-0.074 0.040-0.099 0.071c-0.044 0.081-0.064 0.17-0.058 0.259v1.101c-0.006 0.091 0.014 0.182 0.058 0.265 0.029 0.028 0.063 0.050 0.102 0.066s0.081 0.023 0.125 0.023c0.043 0 0.086-0.008 0.125-0.023s0.073-0.038 0.102-0.066v-0.005z"></path>
<path d="M20.163 13.402h0.521l0.392 1.651 0.401-1.651h0.508l0.051 2.384h-0.375l-0.040-1.656-0.387 1.656h-0.301l-0.401-1.662-0.037 1.662h-0.379l0.048-2.384z"></path>
<path d="M22.62 13.402h0.812c0.468 0 0.701 0.226 0.701 0.676 0 0.432-0.247 0.648-0.739 0.647h-0.277v1.059h-0.501l0.003-2.384zM23.313 14.42c0.049 0.005 0.099 0.002 0.147-0.011s0.092-0.035 0.128-0.064c0.057-0.080 0.083-0.175 0.073-0.269 0.003-0.073-0.005-0.145-0.024-0.216-0.007-0.023-0.020-0.046-0.037-0.066s-0.039-0.035-0.063-0.048c-0.069-0.029-0.146-0.041-0.223-0.038h-0.195v0.713h0.195z"></path>
<path d="M24.856 13.402h0.538l0.553 2.384h-0.467l-0.109-0.549h-0.48l-0.112 0.549h-0.474l0.553-2.384zM25.316 14.96l-0.188-1.001-0.188 1.001h0.375z"></path>
<path d="M26.393 13.402h0.351l0.672 1.36v-1.36h0.416v2.384h-0.334l-0.675-1.419v1.419h-0.43l0.001-2.384z"></path>
<path d="M28.805 14.877l-0.559-1.471h0.47l0.341 0.945 0.32-0.945h0.46l-0.552 1.471v0.909h-0.481v-0.909z"></path>
<path d="M16.93 16.827v0.125h-0.409v0.969h-0.171v-0.969h-0.411v-0.125h0.991z"></path>
<path d="M18.211 17.92h-0.132c-0.014 0.001-0.027-0.003-0.037-0.010-0.009-0.006-0.017-0.015-0.022-0.025l-0.119-0.259h-0.567l-0.119 0.259c-0.003 0.010-0.009 0.021-0.018 0.029-0.010 0.007-0.023 0.011-0.037 0.010h-0.132l0.501-1.093h0.175l0.508 1.089zM17.382 17.514h0.473l-0.201-0.445c-0.015-0.034-0.027-0.068-0.037-0.103-0.007 0.021-0.013 0.041-0.019 0.058l-0.018 0.046-0.199 0.444z"></path>
<path d="M19.076 17.813c0.031 0.002 0.063 0.002 0.094 0 0.027-0.003 0.054-0.007 0.080-0.013 0.024-0.005 0.048-0.012 0.073-0.020 0.022-0.008 0.044-0.017 0.067-0.027v-0.246h-0.201c-0.005 0-0.009 0-0.015-0.002s-0.009-0.003-0.012-0.007c-0.003-0.003-0.006-0.005-0.008-0.009s-0.003-0.007-0.003-0.011v-0.084h0.389v0.419c-0.032 0.020-0.066 0.037-0.1 0.052s-0.073 0.028-0.112 0.037c-0.041 0.010-0.083 0.018-0.125 0.023-0.048 0.004-0.098 0.007-0.146 0.007-0.087 0.001-0.172-0.013-0.253-0.041-0.075-0.026-0.144-0.065-0.201-0.114-0.055-0.050-0.099-0.109-0.13-0.173-0.032-0.073-0.048-0.15-0.046-0.227-0.001-0.078 0.015-0.156 0.045-0.228 0.029-0.065 0.073-0.124 0.13-0.173s0.125-0.087 0.201-0.113c0.086-0.028 0.176-0.041 0.269-0.041 0.047 0 0.093 0.003 0.139 0.009 0.041 0.006 0.080 0.015 0.119 0.028 0.035 0.011 0.068 0.026 0.1 0.043 0.030 0.017 0.060 0.036 0.087 0.057l-0.048 0.067c-0.003 0.006-0.009 0.011-0.016 0.015s-0.015 0.006-0.023 0.006c-0.011 0-0.022-0.003-0.031-0.009-0.015-0.007-0.031-0.016-0.049-0.026-0.022-0.011-0.044-0.022-0.067-0.029-0.029-0.010-0.061-0.018-0.093-0.024-0.041-0.007-0.085-0.009-0.127-0.009-0.067-0.001-0.131 0.009-0.194 0.030-0.055 0.019-0.106 0.048-0.147 0.087s-0.073 0.086-0.093 0.136c-0.045 0.119-0.045 0.246 0 0.364 0.022 0.051 0.056 0.099 0.1 0.137 0.041 0.037 0.091 0.067 0.146 0.087 0.064 0.019 0.131 0.026 0.198 0.022z"></path>
<path d="M20.674 17.795h0.547v0.125h-0.714v-1.093h0.171l-0.004 0.969z"></path>
<path d="M21.79 17.92h-0.171v-1.093h0.171v1.093z"></path>
<path d="M22.429 16.832c0.010 0.005 0.019 0.012 0.026 0.020l0.733 0.824c-0.001-0.013-0.001-0.026 0-0.039s0-0.024 0-0.035v-0.779h0.15v1.098h-0.087c-0.013 0.001-0.026-0.001-0.037-0.006s-0.020-0.012-0.027-0.021l-0.732-0.823c0 0.013 0 0.025 0 0.037s0 0.023 0 0.034v0.779h-0.144v-1.093h0.089c0.009 0 0.019 0.002 0.029 0.005z"></path>
<path d="M24.599 16.827v0.12h-0.607v0.361h0.492v0.116h-0.492v0.373h0.607v0.12h-0.784v-1.091h0.784z"></path>
<path d="M6.636 10.077l7.612 1.865v6.538l-7.612-1.865v-6.539zM6.148 9.52v7.414l8.586 2.106v-7.414l-8.586-2.106z"></path>
<path d="M10.75 22.48l-8.588-2.107v-7.414l8.588 2.106v7.414z"></path>
<path d="M6.29 9.993l7.512 1.842-3.195 2.759-7.513-1.843 3.196-2.758zM6.148 9.52l-3.985 3.44 8.588 2.106 3.984-3.44-8.586-2.106z"></path>
<path d="M11.233 22.064l3.501-3.024-3.501-0.86v3.883z"></path>
</symbol>
<symbol id="icon-instagram" viewBox="0 0 32 32">
<title>instagram</title>
<path d="M29.811 10.299c-0.065-1.47-0.303-2.481-0.643-3.357-0.351-0.93-0.893-1.763-1.601-2.454-0.692-0.703-1.53-1.249-2.449-1.595-0.881-0.341-1.887-0.579-3.357-0.643-1.482-0.070-1.952-0.087-5.709-0.087s-4.227 0.016-5.704 0.081c-1.47 0.065-2.481 0.303-3.357 0.643-0.93 0.351-1.763 0.892-2.454 1.6-0.703 0.692-1.249 1.53-1.595 2.449-0.341 0.881-0.579 1.887-0.643 3.357-0.070 1.482-0.087 1.952-0.087 5.709s0.016 4.227 0.081 5.704c0.065 1.47 0.303 2.481 0.643 3.357 0.351 0.93 0.898 1.763 1.6 2.454 0.692 0.703 1.53 1.249 2.449 1.595 0.881 0.341 1.887 0.579 3.357 0.643 1.475 0.065 1.946 0.081 5.704 0.081s4.227-0.016 5.704-0.081c1.47-0.065 2.481-0.303 3.357-0.643 1.86-0.72 3.331-2.19 4.049-4.049 0.341-0.881 0.579-1.887 0.643-3.357 0.065-1.476 0.081-1.947 0.081-5.704s-0.005-4.227-0.070-5.704zM27.319 21.598c-0.060 1.352-0.286 2.082-0.476 2.568-0.465 1.206-1.422 2.162-2.627 2.627-0.487 0.189-1.222 0.416-2.568 0.476-1.46 0.065-1.898 0.081-5.59 0.081s-4.136-0.016-5.59-0.081c-1.352-0.060-2.082-0.286-2.568-0.476-0.6-0.221-1.146-0.573-1.59-1.033-0.459-0.449-0.811-0.989-1.033-1.59-0.189-0.487-0.416-1.222-0.476-2.568-0.065-1.46-0.081-1.898-0.081-5.59s0.016-4.136 0.081-5.59c0.060-1.352 0.286-2.082 0.476-2.568 0.221-0.6 0.573-1.146 1.038-1.59 0.449-0.459 0.989-0.811 1.59-1.033 0.487-0.189 1.222-0.416 2.568-0.476 1.46-0.065 1.897-0.081 5.591-0.081 3.698 0 4.136 0.016 5.59 0.081 1.352 0.060 2.082 0.286 2.568 0.476 0.6 0.221 1.146 0.573 1.59 1.033 0.459 0.449 0.811 0.989 1.033 1.59 0.189 0.487 0.416 1.222 0.476 2.568 0.065 1.46 0.081 1.898 0.081 5.59s-0.016 4.125-0.081 5.585z"></path>
<path d="M16.051 8.893c-3.925 0-7.109 3.184-7.109 7.109s3.184 7.109 7.109 7.109c3.926 0 7.109-3.184 7.109-7.109s-3.184-7.109-7.109-7.109zM16.051 20.614c-2.546 0-4.611-2.065-4.611-4.611s2.065-4.611 4.611-4.611c2.546 0 4.611 2.065 4.611 4.611s-2.065 4.611-4.611 4.611z"></path>
<path d="M25.102 8.612c0 0.917-0.743 1.66-1.66 1.66s-1.66-0.743-1.66-1.66c0-0.917 0.743-1.66 1.66-1.66s1.66 0.743 1.66 1.66z"></path>
</symbol>
<symbol id="icon-twitter" viewBox="0 0 32 32">
<title>twitter</title>
<path d="M29.838 7.419c-1.029 0.451-2.126 0.751-3.269 0.896 1.176-0.702 2.074-1.806 2.496-3.136-1.097 0.654-2.307 1.116-3.598 1.373-1.041-1.109-2.525-1.795-4.144-1.795-3.141 0-5.67 2.55-5.67 5.675 0 0.45 0.038 0.882 0.131 1.294-4.717-0.23-8.891-2.491-11.695-5.935-0.49 0.849-0.777 1.821-0.777 2.868 0 1.965 1.012 3.707 2.52 4.715-0.912-0.017-1.806-0.282-2.563-0.699 0 0.017 0 0.040 0 0.062 0 2.757 1.967 5.047 4.546 5.575-0.462 0.126-0.965 0.187-1.488 0.187-0.363 0-0.73-0.021-1.074-0.097 0.735 2.247 2.821 3.899 5.302 3.952-1.93 1.51-4.381 2.42-7.035 2.42-0.465 0-0.912-0.021-1.358-0.078 2.513 1.621 5.492 2.546 8.704 2.546 10.441 0 16.149-8.649 16.149-16.145 0-0.251-0.009-0.493-0.021-0.733 1.126-0.799 2.072-1.797 2.844-2.946z"></path>
</symbol>
<symbol id="icon-facebook" viewBox="0 0 32 32">
<title>facebook</title>
<path d="M20.609 6.757h2.526v-4.4c-0.436-0.060-1.935-0.195-3.681-0.195-3.643 0-6.138 2.291-6.138 6.503v3.875h-4.020v4.919h4.020v12.378h4.929v-12.377h3.857l0.612-4.919h-4.471v-3.389c0.001-1.422 0.384-2.395 2.365-2.395z"></path>
</symbol>
<symbol id="icon-linkedin" viewBox="0 0 32 32">
<title>linkedin</title>
<path d="M29.831 29.838v-0.001h0.007v-10.15c0-4.965-1.069-8.79-6.874-8.79-2.791 0-4.663 1.532-5.428 2.983h-0.080v-2.519h-5.504v18.477h5.731v-9.149c0-2.409 0.457-4.739 3.44-4.739 2.94 0 2.983 2.749 2.983 4.893v8.995h5.725z"></path>
<path d="M2.619 11.361h5.738v18.477h-5.738v-18.477z"></path>
<path d="M5.486 2.162c-1.834 0-3.324 1.488-3.324 3.324s1.488 3.355 3.324 3.355c1.834 0 3.324-1.52 3.324-3.355s-1.49-3.324-3.324-3.324v0z"></path>
</symbol>
<symbol id="icon-smartphone" viewBox="0 0 20 32">
<title>smartphone</title>
<path d="M16.865 2.162h-12.108c-1.431 0-2.595 1.164-2.595 2.595v22.486c0 1.43 1.164 2.595 2.595 2.595h12.108c1.43 0 2.595-1.164 2.595-2.595v-22.486c0-1.431-1.164-2.595-2.595-2.595zM4.757 3.892h12.108c0.477 0 0.865 0.387 0.865 0.865v18.162h-13.838v-18.162c0-0.477 0.387-0.865 0.865-0.865zM16.865 28.108h-12.108c-0.477 0-0.865-0.387-0.865-0.865v-2.595h13.838v2.595c0 0.477-0.387 0.865-0.865 0.865z"></path>
<path d="M6.233 25.927c0.338 0.316 0.338 0.827 0 1.143s-0.886 0.316-1.223 0c-0.338-0.316-0.338-0.827 0-1.142s0.886-0.316 1.223 0z"></path>
</symbol>
<symbol id="icon-envelope" viewBox="0 0 43 32">
<title>envelope</title>
<path d="M35.604 2.162h-29.982c-1.908 0-3.459 1.552-3.459 3.459v20.757c0 1.908 1.552 3.459 3.459 3.459h29.982c1.908 0 3.459-1.552 3.459-3.459v-20.757c0-1.908-1.552-3.459-3.459-3.459v0zM35.604 4.469c0.157 0 0.305 0.033 0.442 0.089l-15.433 13.376-15.433-13.376c0.137-0.057 0.285-0.089 0.442-0.089h29.982zM35.604 27.531h-29.982c-0.637 0-1.153-0.517-1.153-1.153v-19.384l15.389 13.337c0.217 0.188 0.487 0.282 0.756 0.282s0.538-0.093 0.756-0.282l15.389-13.337v19.384c0 0.637-0.517 1.153-1.153 1.153v0z"></path>
</symbol>
</defs>
</svg>
